<svg width="96" height="18" viewBox="0 0 96 18" fill="none" xmlns="http://www.w3.org/2000/svg">
<g clip-path="url(#clip0_6067_17960)">
<mask id="mask0_6067_17960" style="mask-type:luminance" maskUnits="userSpaceOnUse" x="0" y="0" width="69" height="18">
<path d="M68.8695 0.621597H0.375V17.4396H68.8695V0.621597Z" fill="white"/>
</mask>
<g mask="url(#mask0_6067_17960)">
<path fill-rule="evenodd" clip-rule="evenodd" d="M3.48004 0.621597C2.43133 0.697654 1.49136 1.24193 0.911435 2.10707C0.626303 2.53727 0.447491 3.02213 0.384665 3.55214C0.375 3.62582 0.375 14.4448 0.375 14.4448L0.391915 14.5684C0.527232 15.5358 1.04675 16.3605 1.86107 16.8953C2.30568 17.1876 2.78654 17.3587 3.36405 17.43C3.46312 17.4419 14.3296 17.4491 14.5519 17.4205C15.7286 17.2732 16.7411 16.5197 17.2075 15.4478C17.3524 15.1127 17.437 14.7681 17.466 14.3949C17.4733 14.3141 17.466 3.6282 17.4563 3.53313C17.4056 3.14334 17.3041 2.80822 17.1446 2.47785C16.7387 1.65073 15.9896 1.01852 15.0955 0.754696C14.9119 0.70003 14.7113 0.659625 14.489 0.631104C14.39 0.621597 3.52837 0.621597 3.48004 0.621597ZM7.52505 3.41429C7.42356 3.44757 7.36073 3.45707 7.21817 3.45707C7.13843 3.45707 7.05627 3.46183 7.00794 3.46896C6.96445 3.47609 6.89196 3.48084 6.84605 3.48084C6.76147 3.48084 6.61408 3.49985 6.47634 3.526C6.35552 3.54977 6.1453 3.62345 6.03415 3.67811C5.98099 3.70663 5.91333 3.73991 5.88916 3.75179C5.84809 3.77318 5.83359 3.77556 5.77559 3.77556C5.73935 3.77556 5.64994 3.77081 5.57745 3.76367C5.45905 3.75179 5.44213 3.74941 5.42039 3.7304C5.37931 3.6995 5.31648 3.67098 5.28749 3.67098C5.23674 3.67098 5.215 3.69237 5.16184 3.79933C5.09418 3.9348 5.05793 3.97996 4.92986 4.07265C4.72206 4.22477 4.63265 4.38639 4.62057 4.62644C4.61574 4.7429 4.61332 4.75003 4.58674 4.7738C4.55291 4.8047 4.22912 5.04475 4.19045 5.06376C4.17112 5.07565 4.14213 5.10179 4.12038 5.13269C4.09863 5.16121 4.0503 5.22063 4.00923 5.26816C3.89082 5.40602 3.86666 5.44404 3.8135 5.58427C3.79658 5.62943 3.74584 5.73163 3.70718 5.81007C3.56461 6.08339 3.55978 6.08815 3.55978 6.13568C3.55978 6.16658 3.56703 6.19748 3.58394 6.24026C3.64435 6.38762 3.65885 6.50883 3.6371 6.66095C3.61294 6.82019 3.59119 6.88674 3.51145 7.04836C3.47037 7.13154 3.43654 7.20047 3.43654 7.20285C3.43654 7.20522 3.44863 7.21711 3.46312 7.22661C3.52112 7.26702 3.55495 7.32644 3.55495 7.40012C3.55495 7.45716 3.57186 7.51896 3.60086 7.56887C3.61294 7.58788 3.71443 7.69721 3.82558 7.80892C3.98989 7.97292 4.03581 8.02521 4.05755 8.06561C4.1083 8.16068 4.15904 8.24149 4.19045 8.27001C4.23153 8.31042 4.41276 8.44352 4.52633 8.5172C4.62782 8.58375 4.79213 8.67644 4.89845 8.7311C4.98544 8.77389 5.03618 8.77864 5.11592 8.74537C5.2754 8.68119 5.29474 8.67644 5.62336 8.67882C5.93266 8.67882 5.91574 8.68357 6.16221 8.59563C6.33378 8.53621 6.42318 8.51244 6.53917 8.49581C6.74456 8.46728 6.77839 8.48392 6.87504 8.64316C6.91854 8.71684 6.9427 8.74299 6.9862 8.76438C7.01519 8.77864 7.02486 8.77864 7.09977 8.77389C7.14568 8.76913 7.22783 8.76676 7.28583 8.76676C7.37765 8.76676 7.39215 8.76676 7.42839 8.78339C7.47672 8.80478 7.50572 8.83331 7.52988 8.87371C7.56371 8.93551 7.5468 9.08524 7.4743 9.35144C7.42839 9.51544 7.43564 9.601 7.5033 9.7032C7.51538 9.72221 7.59029 9.80302 7.6652 9.88383C7.74011 9.96464 7.81985 10.0526 7.84159 10.0811C7.92133 10.1833 8.03007 10.4804 8.06632 10.6848C8.0784 10.7514 8.08565 10.8131 8.08565 10.8227C8.08565 10.8322 8.09773 10.8773 8.11223 10.9201C8.15572 11.0461 8.14847 11.1102 8.08081 11.2029C7.93342 11.4073 7.86334 11.6355 7.85126 11.9587C7.84401 12.1346 7.85368 12.1631 7.99624 12.3984C8.13639 12.629 8.20163 12.7692 8.23305 12.9023C8.24029 12.938 8.26204 13.0521 8.27654 13.159C8.30795 13.38 8.34903 13.5702 8.37803 13.6296C8.38769 13.651 8.42152 13.6985 8.45052 13.7342C8.53026 13.8316 8.60758 13.9528 8.67524 14.0883C8.79123 14.3189 8.81539 14.4044 8.80814 14.5209C8.79606 14.6801 8.85647 14.799 8.9797 14.856C9.05461 14.8893 9.1271 14.8869 9.33008 14.8418C9.52339 14.799 9.64662 14.7823 9.76503 14.7823C9.85927 14.7823 10.0236 14.7609 10.1154 14.7348C10.2072 14.711 10.2725 14.673 10.357 14.5969C10.5238 14.4496 10.6953 14.2476 10.9007 13.9552C11.0675 13.7199 11.094 13.6558 11.1013 13.4704C11.1061 13.3658 11.1085 13.3468 11.123 13.3278C11.1424 13.2992 11.2753 13.2351 11.3236 13.2279C11.3792 13.2208 11.4154 13.197 11.4372 13.1614C11.4831 13.083 11.5072 12.9023 11.4903 12.7692C11.4855 12.7336 11.471 12.6599 11.4589 12.6076C11.4106 12.4127 11.4347 12.3438 11.5821 12.2582C11.6256 12.2321 11.6425 12.2178 11.6691 12.175C11.7199 12.099 11.7924 12.0491 11.9132 12.011C12.0775 11.9587 12.2128 11.828 12.2708 11.6664C12.2901 11.6094 12.2926 11.5214 12.2829 11.3028C12.2781 11.2053 12.2781 11.1649 12.2901 11.0865C12.3071 10.9629 12.3022 10.9439 12.2394 10.8654C12.1572 10.7632 12.1282 10.6872 12.1137 10.5398C12.1065 10.4733 12.1017 10.4447 12.0751 10.3853C12.0509 10.3259 12.0437 10.3021 12.0461 10.2617C12.0461 10.2118 12.0461 10.2094 12.1307 10.0597C12.2394 9.8672 12.2805 9.8054 12.3844 9.68656C12.6188 9.41799 12.8193 9.23022 13.09 9.03295C13.2567 8.90936 13.3654 8.79765 13.45 8.66455C13.7061 8.25338 13.8656 7.94202 13.8874 7.80892C13.9019 7.72098 13.8849 7.62353 13.8511 7.59739C13.8197 7.57362 13.7883 7.57838 13.6916 7.6164C13.6216 7.64492 13.5684 7.65918 13.4282 7.68533C13.0658 7.75663 12.8918 7.78515 12.8483 7.7804C12.7686 7.77327 12.7275 7.72573 12.7033 7.62116C12.6961 7.58551 12.684 7.54272 12.6768 7.52846C12.6623 7.49757 12.4544 7.29792 12.2829 7.14818C12.1379 7.02221 12.1017 6.97706 12.0702 6.87723C12.0292 6.74651 11.9905 6.68234 11.9011 6.59202C11.8165 6.50646 11.7996 6.47081 11.7924 6.34484C11.7803 6.16183 11.7344 6.05725 11.6136 5.9289C11.5652 5.87899 11.5556 5.85998 11.5338 5.80294C11.5193 5.76491 11.5096 5.73163 11.5096 5.72926C11.5096 5.70549 11.4782 5.64132 11.442 5.58427C11.3767 5.48445 11.2511 5.21112 11.2511 5.16834C11.2511 5.16121 11.2704 5.14933 11.2946 5.13982L11.3381 5.12318L11.3719 5.02573C11.4009 4.93779 11.4057 4.91878 11.4057 4.85461C11.4057 4.77617 11.4057 4.76904 11.355 4.60505L11.3236 4.50047L11.1883 4.49096C11.094 4.48383 11.0288 4.4767 10.9732 4.46244C10.9128 4.44818 10.8741 4.44343 10.8113 4.44343C10.7243 4.44343 10.676 4.45294 10.5745 4.49572C10.4924 4.52899 10.4513 4.52424 10.0284 4.41966L9.66596 4.32934L9.61521 4.28419C9.54755 4.22001 9.49681 4.20338 9.4074 4.20813C9.32041 4.21288 9.19718 4.25091 9.15852 4.28656C9.11985 4.31984 9.10777 4.35073 9.10052 4.44818C9.09328 4.5385 9.07394 4.59554 9.04736 4.6098C9.0377 4.61456 9.01837 4.61931 9.00387 4.61931C8.95554 4.61931 8.56167 4.4672 8.51576 4.43154C8.49885 4.41728 8.48435 4.39827 8.4771 4.37213C8.45052 4.29132 8.36836 4.25329 8.15814 4.22239C7.98416 4.19624 7.85851 4.15584 7.74011 4.08216L7.67486 4.04176L7.69419 4.02036C7.69419 4.02036 7.73527 3.97521 7.76185 3.94669C7.84401 3.85637 7.85367 3.81121 7.80535 3.71852C7.7691 3.64721 7.7691 3.61156 7.8126 3.5569C7.86092 3.4951 7.84884 3.47133 7.76185 3.4642C7.72561 3.46183 7.71353 3.45707 7.70386 3.44044C7.68695 3.41429 7.64587 3.39052 7.61687 3.3929C7.60479 3.3929 7.56613 3.40241 7.53471 3.41191M13.5273 11.2172C13.4911 11.2386 13.4597 11.279 13.4065 11.3717C13.3799 11.4192 13.3413 11.4739 13.3219 11.4929C13.3026 11.5143 13.2881 11.5357 13.2857 11.5428C13.2857 11.5856 13.218 11.6759 13.1649 11.7044C13.1528 11.7116 13.073 11.7448 12.9909 11.7805L12.8411 11.8423L12.8048 11.9136C12.7855 11.954 12.7613 12.0087 12.7565 12.0396C12.7396 12.1085 12.742 12.2131 12.7565 12.2939C12.7734 12.3747 12.7662 12.4151 12.7178 12.5197C12.655 12.6575 12.6381 12.7383 12.6502 12.8381C12.6598 12.919 12.6743 12.9641 12.7275 13.0853C12.7613 13.1638 12.7807 13.1994 12.8072 13.2256C12.8483 13.2683 12.9281 13.3183 12.9546 13.3183C12.9643 13.3183 13.0005 13.3064 13.0344 13.2921C13.0682 13.2778 13.119 13.2612 13.1455 13.2565C13.2059 13.2446 13.2301 13.2327 13.2664 13.197C13.3171 13.1471 13.3485 13.0639 13.4089 12.8286C13.4282 12.7502 13.4717 12.6005 13.5032 12.4959C13.5756 12.2653 13.6119 12.1322 13.6288 12.0182C13.6409 11.9469 13.6506 11.9183 13.682 11.8565L13.7206 11.7781V11.5999C13.7158 11.443 13.7134 11.4145 13.6965 11.3693C13.6675 11.2814 13.5998 11.2006 13.5611 11.2006C13.5563 11.2006 13.5394 11.2077 13.5273 11.2148" fill="white"/>
<path fill-rule="evenodd" clip-rule="evenodd" d="M26.2917 2.00017C26.0839 2.04533 25.8954 2.16654 25.7625 2.34005C25.6876 2.43749 25.661 2.4874 25.5112 2.80351C25.2744 3.30501 21.6763 10.9606 21.6473 11.115C21.5966 11.405 21.6884 11.6665 21.9204 11.8875C22.2201 12.1727 22.6743 12.2488 23.0295 12.0776C23.2325 11.9778 23.3823 11.8162 23.4935 11.569C23.6505 11.2244 26.4922 5.16602 26.4922 5.16602L26.5116 5.20404C26.5454 5.26822 31.0109 14.7562 31.0423 14.8204C31.2428 15.2245 31.5618 15.4408 31.9581 15.4408C32.3882 15.4408 32.7603 15.165 32.8666 14.7634C32.9101 14.5946 32.9077 14.376 32.8546 14.2001C32.828 14.1074 27.4129 2.62526 27.3887 2.57772C27.2413 2.27587 27.0214 2.08811 26.7266 2.00968C26.63 1.98353 26.3835 1.97878 26.2869 1.99779M39.2604 1.99304C38.8955 2.01443 38.5306 2.06909 38.1512 2.16416C37.0832 2.43274 36.2375 2.96513 35.6237 3.75897C35.2154 4.28661 34.9713 4.8404 34.8601 5.49401C34.7925 5.88617 34.7756 6.44709 34.8215 6.6301C34.8988 6.92957 35.1453 7.18151 35.4546 7.27658C35.8315 7.39304 36.2786 7.25044 36.5129 6.9367C36.6507 6.75369 36.6869 6.62059 36.7014 6.24507C36.7111 6.00026 36.728 5.86003 36.7763 5.66514C36.873 5.27297 37.0397 4.96161 37.2958 4.70255C37.4263 4.56945 37.5037 4.50765 37.6607 4.40545C37.9483 4.22007 38.1923 4.10123 38.4992 4.0014C38.8496 3.88732 39.1782 3.83978 39.531 3.84929C39.978 3.86355 40.413 3.96813 40.8721 4.17015C41.481 4.43873 41.8966 4.86417 42.0924 5.41795C42.2736 5.93609 42.305 6.51839 42.1842 7.07455C42.0972 7.46672 41.986 7.70677 41.7782 7.9397C41.6236 8.1132 41.3602 8.29383 40.9953 8.47447C40.5773 8.68124 40.2946 8.78582 39.5527 8.99973C38.2092 9.38952 37.4916 9.68424 36.8537 10.1073C36.5734 10.2927 36.368 10.4614 36.1239 10.7062C35.6503 11.1816 35.0825 12.3937 35.0825 12.3937C34.9351 12.8216 34.8481 13.2874 34.8118 13.8483C34.7707 14.4663 34.778 14.6374 34.8481 14.8299C34.9616 15.1342 35.2105 15.3433 35.5488 15.417L35.6455 15.4384H39.7074L39.7823 15.4194C39.9684 15.3718 40.1109 15.2863 40.2414 15.1508C40.4758 14.9084 40.558 14.578 40.4613 14.2524C40.3695 13.9386 40.1158 13.6986 39.7847 13.6106C39.6784 13.5821 36.7498 13.575 36.7498 13.575L36.757 13.5322C36.8319 13.0069 37.0349 12.5316 37.349 12.1561C37.6124 11.84 37.9724 11.5785 38.4219 11.3765C38.8617 11.1792 39.3474 11.0081 40.1568 10.7704C40.9446 10.5399 41.394 10.3735 41.8555 10.1501C42.1068 10.0289 42.2615 9.94093 42.4596 9.81021C43.315 9.24929 43.8394 8.46971 44.0472 7.45246C44.2043 6.68952 44.1753 5.73882 43.9747 5.04242C43.6727 3.98952 42.9985 3.18855 41.9256 2.60149C41.2998 2.25924 40.6135 2.05008 39.9297 1.99541C39.763 1.98115 39.415 1.9764 39.2579 1.98591M50.8179 1.98353C49.6387 2.04057 48.6431 2.35668 47.8916 2.91047C47.5775 3.14102 47.2876 3.43098 47.0701 3.72808C46.7294 4.1963 46.5312 4.71443 46.4587 5.32051C46.437 5.49401 46.4322 5.86241 46.4442 6.05968C46.4732 6.47323 46.5361 6.78697 46.6496 7.08644C46.9783 7.95158 47.7056 8.6242 48.8123 9.08529C49.3052 9.29207 49.745 9.42755 50.8179 9.708C52.1155 10.0455 52.6712 10.2333 53.1158 10.4805C53.2826 10.5731 53.3865 10.6468 53.4976 10.7538C53.6789 10.9249 53.7876 11.1127 53.8432 11.3503C53.8673 11.4502 53.877 11.7045 53.8601 11.84C53.8021 12.37 53.5508 12.7669 53.0844 13.0687C52.7244 13.3017 52.2097 13.4657 51.6008 13.537C51.4582 13.5536 51.3809 13.5584 51.1175 13.5584C50.9194 13.5584 50.7599 13.5536 50.685 13.5465C49.8465 13.4633 49.1554 13.2351 48.6166 12.8667C48.4692 12.7669 48.3508 12.6671 48.1889 12.5102C48.0149 12.3438 47.9569 12.2987 47.8578 12.2583C47.5944 12.1513 47.1981 12.2012 46.9154 12.3795C46.8502 12.4199 46.7439 12.5221 46.6955 12.5886C46.5167 12.8334 46.4781 13.1971 46.5965 13.4799C46.6545 13.6202 46.7415 13.7342 46.9106 13.8959C47.4301 14.3926 47.9835 14.7372 48.6866 15.0034C49.5058 15.3124 50.3153 15.4479 51.2383 15.4336C52.159 15.417 52.896 15.253 53.6426 14.8941C54.266 14.5946 54.7058 14.2524 55.061 13.7889C55.438 13.2969 55.6603 12.7526 55.7497 12.1038C55.7787 11.9018 55.7811 11.4383 55.7545 11.2339C55.7038 10.8275 55.6192 10.5351 55.4621 10.2238C55.2278 9.75792 54.8677 9.36813 54.3506 9.02588C53.9374 8.75255 53.5025 8.55528 52.7945 8.32235C52.4344 8.20352 52.1469 8.12271 51.5911 7.98485C51.0063 7.83749 50.7889 7.78045 50.4796 7.68538C49.5155 7.39066 48.9621 7.11734 48.6649 6.78221C48.3846 6.4661 48.2879 6.07869 48.3556 5.55105C48.3918 5.27297 48.4788 5.03529 48.6286 4.81188C48.7229 4.67165 48.9114 4.48626 49.0684 4.38406C49.4599 4.12737 50.0688 3.93485 50.6874 3.87068C50.7623 3.86355 50.9484 3.85404 51.0982 3.84929C51.3422 3.84216 51.3785 3.83978 51.4582 3.81839C51.5645 3.78987 51.6298 3.76373 51.7192 3.70668C51.898 3.5926 52.0599 3.36681 52.1179 3.15052C52.1396 3.06971 52.1469 2.88908 52.1324 2.79876C52.0913 2.54445 51.9246 2.283 51.7192 2.14515C51.6153 2.07622 51.5017 2.03107 51.3688 2.00492C51.3011 1.99066 50.9629 1.98115 50.8203 1.98828M67.7639 1.98828C67.5488 2.01443 67.3628 2.10712 67.2105 2.26637C67.097 2.38283 67.0511 2.46601 66.9423 2.73459C66.6886 3.36681 63.11 12.004 63.11 12.004C63.11 12.004 60.6428 6.01927 60.6211 5.97411C60.464 5.66276 60.2007 5.48213 59.8672 5.45836C59.5651 5.43459 59.2172 5.57957 59.0335 5.80299C58.8861 5.98362 58.8233 6.17852 58.833 6.41857C58.8427 6.6301 62.2232 14.8299 62.2594 14.9012C62.315 15.0106 62.373 15.0914 62.4551 15.1722C62.8297 15.5453 63.4217 15.5358 63.7962 15.1532C63.876 15.07 63.9581 14.9559 63.9992 14.8656C64.0306 14.799 68.8029 3.18855 68.8295 3.09823C68.8464 3.03882 68.8633 3.00792 68.8633 2.87719C68.8754 2.87719 68.8513 2.71795 68.8513 2.71795L68.8174 2.62526C68.7739 2.50404 68.7111 2.40184 68.6193 2.30677C68.4502 2.13089 68.2399 2.02156 68.0031 1.98828C67.9355 1.97878 67.8219 1.9764 67.7639 1.98353" fill="white"/>
<path d="M54.721 5.20645C55.2509 5.20645 55.6803 4.78401 55.6803 4.26288C55.6803 3.74175 55.2509 3.31931 54.721 3.31931C54.1914 3.31931 53.7617 3.74175 53.7617 4.26288C53.7617 4.78401 54.1914 5.20645 54.721 5.20645Z" fill="white"/>
<path d="M43.2318 15.455C43.7614 15.455 44.1911 15.0326 44.1911 14.5115C44.1911 13.9903 43.7614 13.5679 43.2318 13.5679C42.7019 13.5679 42.2725 13.9903 42.2725 14.5115C42.2725 15.0326 42.7019 15.455 43.2318 15.455Z" fill="white"/>
<path d="M58.3685 3.86833C58.8984 3.86833 59.3278 3.44586 59.3278 2.92474C59.3278 2.40362 58.8984 1.98117 58.3685 1.98117C57.8388 1.98117 57.4092 2.40362 57.4092 2.92474C57.4092 3.44586 57.8388 3.86833 58.3685 3.86833Z" fill="white"/>
<path d="M21.0677 15.4265C21.5975 15.4265 22.027 15.004 22.027 14.4829C22.027 13.9618 21.5975 13.5393 21.0677 13.5393C20.5379 13.5393 20.1084 13.9618 20.1084 14.4829C20.1084 15.004 20.5379 15.4265 21.0677 15.4265Z" fill="white"/>
</g>
</g>
<path d="M88.7812 8.40283L94.1625 3.02158" stroke="white" stroke-width="1.125" stroke-linecap="round" stroke-linejoin="round"/>
<path d="M94.6871 5.64658V2.49658H91.5371" stroke="white" stroke-width="1.125" stroke-linecap="round" stroke-linejoin="round"/>
<path d="M87.4687 2.49658H86.1562C82.875 2.49658 81.5625 3.80908 81.5625 7.09033V11.0278C81.5625 14.3091 82.875 15.6216 86.1562 15.6216H90.0937C93.375 15.6216 94.6875 14.3091 94.6875 11.0278V9.71533" stroke="white" stroke-width="1.125" stroke-linecap="round" stroke-linejoin="round"/>
<defs>
<clipPath id="clip0_6067_17960">
<rect width="68.625" height="16.875" fill="white" transform="translate(0.375 0.621582)"/>
</clipPath>
</defs>
</svg>
