<svg width="50" height="48" viewBox="0 0 50 48" fill="none" xmlns="http://www.w3.org/2000/svg">
<mask id="mask0_7698_15672" style="mask-type:luminance" maskUnits="userSpaceOnUse" x="0" y="0" width="50" height="48">
<path d="M0.0917969 0H49.2696V47.582H0.0917969V0Z" fill="white"/>
</mask>
<g mask="url(#mask0_7698_15672)">
<path d="M49.4666 24.6886C49.1055 23.5254 48.8829 22.2615 49.1475 20.7245C48.5554 19.4941 47.9969 17.806 47.6483 15.3788C47.1234 14.5432 46.3592 14.7615 45.9812 12.0362C45.2799 11.2383 44.8222 12.8383 43.2937 8.35764C42.479 7.72355 41.6854 7.65636 40.3584 5.53572C39.5227 5.18718 38.8844 6.04384 37.4105 3.47388C36.0163 2.99516 34.7062 1.99153 32.8501 1.34904C31.0444 0.72755 28.0881 0.219437 28.0881 0.219437L24.019 0.0136719L21.4868 0.219437L19.4796 0.576375C19.4796 0.576375 17.5395 1.38684 17.4723 1.11388C17.4093 0.84093 16.137 1.5758 16.137 1.5758C16.137 1.5758 14.9276 2.29388 14.1297 2.43666C13.2604 3.41089 12.4122 3.74263 11.3414 4.01139C9.69946 4.42292 7.93576 6.68633 7.93576 6.68633L5.46658 9.36127C5.46658 9.36127 4.8031 10.9654 4.02203 11.3643C3.81627 12.3596 2.51869 14.0393 2.51869 14.0393L1.19591 17.3819L0.40645 20.7245C0.40645 20.7245 0.410649 22.5932 0.116698 23.4666C0.116698 23.4666 0.0999032 23.8698 0.0957031 24.0671C0.788584 25.4319 0.322464 28.0817 0.322464 28.0817L0.843175 30.7524L2.23734 34.7669L4.05562 38.1095C4.05562 38.1095 5.98729 40.3771 6.77676 41.5823C7.78878 42.397 8.68743 43.2705 9.55668 44.1271C10.6485 44.61 11.5555 45.1685 12.1266 45.8908C12.8615 46.2015 13.5544 46.5459 14.1717 46.9868C16.7794 48.2298 19.7945 46.2981 19.7945 43.4048V41.1372C19.7945 39.1594 18.1904 37.5468 16.2041 37.5468L15.0619 37.5594C11.396 37.5594 8.45647 34.473 8.69583 30.7524C8.91839 27.3636 11.8873 24.7978 15.2803 24.7978H33.7739C37.1711 24.7978 40.14 27.3594 40.3584 30.7524C40.602 34.473 37.6583 37.5594 33.9965 37.5594L32.8501 37.5468C30.8722 37.5468 29.2597 39.151 29.2597 41.1372V43.6232C29.2597 46.4913 32.216 48.3978 34.8363 47.2262C35.4494 46.5333 36.2893 46.0588 37.4105 45.8908C38.2042 44.82 39.2078 43.9801 40.6062 43.6232C41.3242 42.4684 42.2985 41.3598 43.7766 40.4485C43.9446 39.6129 44.1251 38.752 45.5025 38.1095C45.7671 36.9169 46.2584 35.7621 47.325 34.7669C47.4426 33.4147 47.8667 32.0584 48.7192 30.7524C48.8409 28.8081 49.0383 26.7757 49.4708 24.6844L49.4666 24.6886Z" fill="#4B92B6"/>
</g>
<path d="M33.9872 27.1152H15.439C13.1546 27.1152 11.3027 28.9671 11.3027 31.2557C11.3027 33.5401 13.1546 35.392 15.439 35.392H33.9872C36.2717 35.392 38.1235 33.5401 38.1235 31.2557C38.1235 28.9671 36.2717 27.1152 33.9872 27.1152ZM16.4385 33.8677C14.9939 33.8677 13.8223 32.7003 13.8223 31.2473C13.8223 29.7986 14.9939 28.6354 16.4385 28.6354C17.883 28.6354 19.0504 29.8028 19.0504 31.2473C19.0504 32.6919 17.883 33.8677 16.4385 33.8677ZM32.5091 33.8677C31.0645 33.8677 29.8971 32.7003 29.8971 31.2473C29.8971 29.7986 31.0645 28.6354 32.5091 28.6354C33.9536 28.6354 35.1294 29.8028 35.1294 31.2473C35.1294 32.6919 33.962 33.8677 32.5091 33.8677Z" fill="#4B92B6"/>
</svg>
